<svg width="20" height="20" viewBox="0 0 20 20" fill="none" xmlns="http://www.w3.org/2000/svg">
<circle cx="10" cy="10" r="10" fill="#DA4B0E" fill-opacity="0.1"/>
<g clip-path="url(#clip0_446_1597)">
<path d="M15.8333 15C15.8333 15 16.6666 15 16.6666 14.1667C16.6666 13.3333 15.8333 10.8333 12.4999 10.8333C9.16658 10.8333 8.33325 13.3333 8.33325 14.1667C8.33325 15 9.16658 15 9.16658 15H15.8333ZM9.18492 14.1667C9.17876 14.1658 9.17265 14.1647 9.16658 14.1633C9.16742 13.9433 9.30575 13.305 9.79992 12.73C10.2599 12.1908 11.0683 11.6667 12.4999 11.6667C13.9308 11.6667 14.7391 12.1917 15.1999 12.73C15.6941 13.305 15.8316 13.9442 15.8333 14.1633L15.8266 14.165C15.8227 14.1657 15.8188 14.1662 15.8149 14.1667H9.18492ZM12.4999 9.16667C12.9419 9.16667 13.3659 8.99107 13.6784 8.67851C13.991 8.36595 14.1666 7.94203 14.1666 7.5C14.1666 7.05797 13.991 6.63405 13.6784 6.32149C13.3659 6.00893 12.9419 5.83333 12.4999 5.83333C12.0579 5.83333 11.634 6.00893 11.3214 6.32149C11.0088 6.63405 10.8333 7.05797 10.8333 7.5C10.8333 7.94203 11.0088 8.36595 11.3214 8.67851C11.634 8.99107 12.0579 9.16667 12.4999 9.16667ZM14.9999 7.5C14.9999 7.8283 14.9353 8.15339 14.8096 8.45671C14.684 8.76002 14.4998 9.03562 14.2677 9.26777C14.0355 9.49991 13.7599 9.68406 13.4566 9.8097C13.1533 9.93534 12.8282 10 12.4999 10C12.1716 10 11.8465 9.93534 11.5432 9.8097C11.2399 9.68406 10.9643 9.49991 10.7322 9.26777C10.5 9.03562 10.3159 8.76002 10.1902 8.45671C10.0646 8.15339 9.99992 7.8283 9.99992 7.5C9.99992 6.83696 10.2633 6.20107 10.7322 5.73223C11.201 5.26339 11.8369 5 12.4999 5C13.163 5 13.7988 5.26339 14.2677 5.73223C14.7365 6.20107 14.9999 6.83696 14.9999 7.5ZM9.11325 11.0667C8.7799 10.9617 8.43628 10.8927 8.08825 10.8608C7.89269 10.8422 7.69636 10.8331 7.49992 10.8333C4.16659 10.8333 3.33325 13.3333 3.33325 14.1667C3.33325 14.7225 3.61075 15 4.16659 15H7.67992C7.55638 14.7398 7.49477 14.4546 7.49992 14.1667C7.49992 13.325 7.81409 12.465 8.40825 11.7467C8.61075 11.5017 8.84659 11.2725 9.11325 11.0667ZM7.43325 11.6667C6.94005 12.4077 6.67362 13.2765 6.66659 14.1667H4.16659C4.16659 13.95 4.30325 13.3083 4.79992 12.73C5.25409 12.2 6.04325 11.6825 7.43325 11.6667ZM4.58325 7.91667C4.58325 7.25363 4.84664 6.61774 5.31549 6.1489C5.78433 5.68006 6.42021 5.41667 7.08325 5.41667C7.74629 5.41667 8.38218 5.68006 8.85102 6.1489C9.31986 6.61774 9.58325 7.25363 9.58325 7.91667C9.58325 8.57971 9.31986 9.21559 8.85102 9.68443C8.38218 10.1533 7.74629 10.4167 7.08325 10.4167C6.42021 10.4167 5.78433 10.1533 5.31549 9.68443C4.84664 9.21559 4.58325 8.57971 4.58325 7.91667ZM7.08325 6.25C6.64122 6.25 6.2173 6.42559 5.90474 6.73816C5.59218 7.05072 5.41659 7.47464 5.41659 7.91667C5.41659 8.35869 5.59218 8.78262 5.90474 9.09518C6.2173 9.40774 6.64122 9.58333 7.08325 9.58333C7.52528 9.58333 7.9492 9.40774 8.26176 9.09518C8.57432 8.78262 8.74992 8.35869 8.74992 7.91667C8.74992 7.47464 8.57432 7.05072 8.26176 6.73816C7.9492 6.42559 7.52528 6.25 7.08325 6.25Z" fill="#D87C04"/>
</g>
<defs>
<clipPath id="clip0_446_1597">
<rect width="13.3333" height="13.3333" fill="white" transform="translate(3.33325 3.33331)"/>
</clipPath>
</defs>
</svg>
